<?xml version="1.0" standalone="no"?>
<!DOCTYPE svg PUBLIC "-//W3C//DTD SVG 20010904//EN"
 "http://www.w3.org/TR/2001/REC-SVG-20010904/DTD/svg10.dtd">
<svg version="1.0" xmlns="http://www.w3.org/2000/svg"
 width="200.000000pt" height="200.000000pt" viewBox="0 0 200.000000 200.000000"
 preserveAspectRatio="xMidYMid meet">

<g transform="translate(0.000000,200.000000) scale(0.100000,-0.100000)"
fill="#000000" stroke="none">
<path d="M0 1000 l0 -1000 1000 0 1000 0 0 1000 0 1000 -1000 0 -1000 0 0
-1000z m1450 20 l0 -130 -30 0 -30 0 0 130 0 130 30 0 30 0 0 -130z m-860 50
c9 -18 8 -20 -15 -20 -27 0 -28 1 -19 24 8 22 21 20 34 -4z m272 11 c13 -4 32
-5 43 -1 40 14 45 3 45 -96 l0 -94 -30 0 c-16 0 -30 5 -30 10 0 7 -6 7 -19 0
-33 -17 -61 -11 -92 19 -23 23 -29 38 -29 71 0 33 6 48 29 71 31 31 46 34 83
20z m205 1 c39 14 81 -4 97 -42 l12 -31 12 25 c6 14 25 32 43 41 85 44 175
-42 134 -128 -36 -77 -156 -74 -181 5 -6 20 -7 19 -19 -10 -21 -49 -60 -62
-117 -37 -16 6 -18 1 -18 -50 0 -56 0 -56 -27 -53 l-28 3 -3 129 c-1 72 0 136
2 142 4 9 14 10 35 4 19 -5 41 -4 58 2z m542 -6 c51 -27 67 -103 31 -149 -41
-52 -136 -44 -165 14 -28 53 -10 113 40 135 39 17 60 17 94 0z m-1173 -45 c-3
-5 3 -11 14 -14 26 -7 26 -36 0 -80 -16 -27 -29 -36 -56 -39 -19 -2 -37 -1
-40 4 -5 7 73 138 82 138 3 0 3 -4 0 -9z"/>
<path d="M828 1029 c-25 -14 -24 -65 2 -79 45 -24 82 37 44 74 -18 19 -23 19
-46 5z"/>
<path d="M1050 1020 c-24 -24 -24 -29 -4 -58 20 -29 40 -28 59 2 30 45 -18 93
-55 56z"/>
<path d="M1257 1028 c-21 -11 -22 -61 -2 -78 33 -27 76 20 55 60 -12 23 -32
30 -53 18z"/>
<path d="M1536 1024 c-9 -8 -16 -24 -16 -34 0 -17 24 -50 36 -50 20 0 44 25
44 45 0 23 -23 55 -40 55 -5 0 -16 -7 -24 -16z"/>
</g>
</svg>
